<svg width="8302" height="2353" viewBox="0 0 8302 2353" fill="none" xmlns="http://www.w3.org/2000/svg">
<path d="M1250 1970.01H950.195L410.156 1048.14V1970.01H129.883V569.62H429.688L969.727 1492.47V569.62H1250V1970.01ZM1882.81 1714.15C1893.23 1717.41 1903.65 1719.68 1914.06 1720.99C1924.48 1721.64 1934.9 1721.96 1945.31 1721.96C1971.35 1721.96 1996.42 1718.38 2020.51 1711.22C2044.6 1704.06 2067.06 1693.97 2087.89 1680.95C2109.38 1667.28 2128.26 1651 2144.53 1632.12C2161.46 1612.59 2175.13 1591.1 2185.55 1567.67L2380.86 1763.96C2356.12 1799.11 2327.47 1830.69 2294.92 1858.68C2263.02 1886.68 2228.19 1910.44 2190.43 1929.97C2153.32 1949.5 2113.93 1964.15 2072.27 1973.92C2031.25 1984.33 1988.93 1989.54 1945.31 1989.54C1871.74 1989.54 1802.41 1975.87 1737.3 1948.53C1672.85 1921.18 1616.21 1883.1 1567.38 1834.27C1519.21 1785.44 1481.12 1727.5 1453.12 1660.44C1425.13 1592.73 1411.13 1518.51 1411.13 1437.78C1411.13 1355.1 1425.13 1279.58 1453.12 1211.22C1481.12 1142.86 1519.21 1084.59 1567.38 1036.42C1616.21 988.24 1672.85 950.805 1737.3 924.112C1802.41 897.419 1871.74 884.073 1945.31 884.073C1988.93 884.073 2031.58 889.281 2073.24 899.698C2114.91 910.115 2154.3 925.089 2191.41 944.62C2229.17 964.151 2264.32 988.24 2296.88 1016.89C2329.43 1044.88 2358.07 1076.46 2382.81 1111.61L1882.81 1714.15ZM2019.53 1164.35C2007.16 1159.79 1994.79 1156.86 1982.42 1155.56C1970.7 1154.26 1958.33 1153.6 1945.31 1153.6C1908.85 1153.6 1874.35 1160.44 1841.8 1174.11C1809.9 1187.13 1781.9 1206.01 1757.81 1230.75C1734.38 1255.49 1715.82 1285.44 1702.15 1320.6C1688.48 1355.1 1681.64 1394.16 1681.64 1437.78C1681.64 1447.55 1681.97 1458.62 1682.62 1470.99C1683.92 1483.36 1685.55 1496.05 1687.5 1509.07C1690.1 1521.44 1693.03 1533.49 1696.29 1545.21C1699.54 1556.92 1703.78 1567.34 1708.98 1576.46L2019.53 1164.35ZM3470.7 1970.01H3144.53L2936.52 1649.7L2726.56 1970.01H2400.39L2782.23 1433.88L2400.39 918.253H2726.56L2936.52 1218.06L3144.53 918.253H3470.7L3087.89 1433.88L3470.7 1970.01ZM4090.82 1970.01C4026.37 1970.01 3965.82 1957.97 3909.18 1933.88C3852.54 1909.14 3802.73 1875.61 3759.77 1833.29C3717.45 1790.32 3683.92 1740.52 3659.18 1683.88C3635.09 1627.24 3623.05 1566.69 3623.05 1502.24V1191.69H3493.16V926.065H3623.05V508.096H3888.67V926.065H4292.97V1191.69H3888.67V1502.24C3888.67 1530.23 3893.88 1556.6 3904.3 1581.34C3914.71 1605.43 3929.04 1626.59 3947.27 1644.82C3965.49 1663.04 3986.98 1677.69 4011.72 1688.76C4036.46 1699.18 4062.83 1704.39 4090.82 1704.39H4292.97V1970.01H4090.82ZM4751.95 849.893V1410.44H5032.23C5070.64 1410.44 5106.77 1403.28 5140.62 1388.96C5174.48 1373.98 5204.1 1353.8 5229.49 1328.41C5254.88 1303.02 5274.74 1273.4 5289.06 1239.54C5304.04 1205.04 5311.52 1168.58 5311.52 1130.17C5311.52 1091.76 5304.04 1055.62 5289.06 1021.77C5274.74 987.263 5254.88 957.315 5229.49 931.925C5204.1 906.534 5174.48 886.677 5140.62 872.354C5106.77 857.38 5070.64 849.893 5032.23 849.893H4751.95ZM4751.95 1970.01H4471.68V569.62H5032.23C5083.66 569.62 5133.14 576.456 5180.66 590.128C5228.19 603.149 5272.46 622.029 5313.48 646.768C5355.14 670.857 5392.9 700.154 5426.76 734.659C5461.26 768.513 5490.56 806.274 5514.65 847.94C5539.39 889.607 5558.27 934.203 5571.29 981.729C5584.96 1029.26 5591.8 1078.73 5591.8 1130.17C5591.8 1206.99 5577.15 1279.58 5547.85 1347.94C5518.55 1415.65 5478.52 1474.89 5427.73 1525.67C5376.95 1576.46 5317.38 1616.49 5249.02 1645.79C5181.32 1675.09 5109.05 1689.74 5032.23 1689.74H4751.95V1970.01ZM6042.97 639.932C6042.97 664.672 6038.09 687.784 6028.32 709.268C6019.21 730.753 6006.51 749.633 5990.23 765.909C5973.96 781.534 5954.75 794.229 5932.62 803.995C5911.13 813.109 5888.02 817.667 5863.28 817.667C5838.54 817.667 5815.1 813.109 5792.97 803.995C5771.48 794.229 5752.6 781.534 5736.33 765.909C5720.7 749.633 5708.01 730.753 5698.24 709.268C5689.13 687.784 5684.57 664.672 5684.57 639.932C5684.57 615.844 5689.13 593.057 5698.24 571.573C5708.01 549.438 5720.7 530.557 5736.33 514.932C5752.6 498.656 5771.48 485.961 5792.97 476.846C5815.1 467.081 5838.54 462.198 5863.28 462.198C5888.02 462.198 5911.13 467.081 5932.62 476.846C5954.75 485.961 5973.96 498.656 5990.23 514.932C6006.51 530.557 6019.21 549.438 6028.32 571.573C6038.09 593.057 6042.97 615.844 6042.97 639.932ZM5997.07 1970.01H5728.52V924.112H5997.07V1970.01Z" fill="black"/>
<path d="M7536.35 257.544L7518.36 1938.33L5880.63 300.601L7536.35 257.544Z" fill="#CBB57B"/>
<path d="M6482.28 1969.99H6213.72V508.075H6482.28V1429.95L6879.74 926.044H7186.38L6839.7 1361.59L7186.38 1969.99H6879.74L6667.82 1590.11L6482.28 1836.2V1969.99Z" fill="black"/>
</svg>
