<svg width="6841" height="2356" viewBox="0 0 6841 2356" fill="none" xmlns="http://www.w3.org/2000/svg">
<path d="M1000 2007.12H760.156L328.125 1269.62V2007.12H103.906V886.811H343.75L775.781 1625.09V886.811H1000V2007.12ZM1506.25 1802.44C1514.58 1805.04 1522.92 1806.86 1531.25 1807.9C1539.58 1808.43 1547.92 1808.69 1556.25 1808.69C1577.08 1808.69 1597.14 1805.82 1616.41 1800.09C1635.68 1794.36 1653.65 1786.29 1670.31 1775.87C1687.5 1764.94 1702.6 1751.91 1715.62 1736.81C1729.17 1721.19 1740.1 1704 1748.44 1685.25L1904.69 1842.28C1884.9 1870.4 1861.98 1895.66 1835.94 1918.06C1810.42 1940.46 1782.55 1959.47 1752.34 1975.09C1722.66 1990.72 1691.15 2002.44 1657.81 2010.25C1625 2018.58 1591.15 2022.75 1556.25 2022.75C1497.4 2022.75 1441.93 2011.81 1389.84 1989.94C1338.28 1968.06 1292.97 1937.59 1253.91 1898.53C1215.36 1859.47 1184.9 1813.11 1162.5 1759.47C1140.1 1705.3 1128.91 1645.93 1128.91 1581.34C1128.91 1515.2 1140.1 1454.78 1162.5 1400.09C1184.9 1345.4 1215.36 1298.79 1253.91 1260.25C1292.97 1221.71 1338.28 1191.76 1389.84 1170.4C1441.93 1149.05 1497.4 1138.37 1556.25 1138.37C1591.15 1138.37 1625.26 1142.54 1658.59 1150.87C1691.93 1159.21 1723.44 1171.19 1753.12 1186.81C1783.33 1202.44 1811.46 1221.71 1837.5 1244.62C1863.54 1267.02 1886.46 1292.28 1906.25 1320.4L1506.25 1802.44ZM1615.62 1362.59C1605.73 1358.95 1595.83 1356.6 1585.94 1355.56C1576.56 1354.52 1566.67 1354 1556.25 1354C1527.08 1354 1499.48 1359.47 1473.44 1370.4C1447.92 1380.82 1425.52 1395.93 1406.25 1415.72C1387.5 1435.51 1372.66 1459.47 1361.72 1487.59C1350.78 1515.2 1345.31 1546.45 1345.31 1581.34C1345.31 1589.15 1345.57 1598.01 1346.09 1607.9C1347.14 1617.8 1348.44 1627.96 1350 1638.37C1352.08 1648.27 1354.43 1657.9 1357.03 1667.28C1359.64 1676.65 1363.02 1684.99 1367.19 1692.28L1615.62 1362.59ZM2776.56 2007.12H2515.62L2349.22 1750.87L2181.25 2007.12H1920.31L2225.78 1578.22L1920.31 1165.72H2181.25L2349.22 1405.56L2515.62 1165.72H2776.56L2470.31 1578.22L2776.56 2007.12ZM3272.66 2007.12C3221.09 2007.12 3172.66 1997.49 3127.34 1978.22C3082.03 1958.43 3042.19 1931.6 3007.81 1897.75C2973.96 1863.37 2947.14 1823.53 2927.34 1778.22C2908.07 1732.9 2898.44 1684.47 2898.44 1632.9V1384.47H2794.53V1171.97H2898.44V837.592H3110.94V1171.97H3434.38V1384.47H3110.94V1632.9C3110.94 1655.3 3115.1 1676.39 3123.44 1696.19C3131.77 1715.46 3143.23 1732.38 3157.81 1746.97C3172.4 1761.55 3189.58 1773.27 3209.38 1782.12C3229.17 1790.46 3250.26 1794.62 3272.66 1794.62H3434.38V2007.12H3272.66ZM3801.56 1111.03V1559.47H4025.78C4056.51 1559.47 4085.42 1553.74 4112.5 1542.28C4139.58 1530.3 4163.28 1514.15 4183.59 1493.84C4203.91 1473.53 4219.79 1449.83 4231.25 1422.75C4243.23 1395.14 4249.22 1365.98 4249.22 1335.25C4249.22 1304.52 4243.23 1275.61 4231.25 1248.53C4219.79 1220.93 4203.91 1196.97 4183.59 1176.65C4163.28 1156.34 4139.58 1140.46 4112.5 1129C4085.42 1117.02 4056.51 1111.03 4025.78 1111.03H3801.56ZM3801.56 2007.12H3577.34V886.811H4025.78C4066.93 886.811 4106.51 892.279 4144.53 903.217C4182.55 913.633 4217.97 928.738 4250.78 948.529C4284.11 967.8 4314.32 991.238 4341.41 1018.84C4369.01 1045.93 4392.45 1076.13 4411.72 1109.47C4431.51 1142.8 4446.61 1178.48 4457.03 1216.5C4467.97 1254.52 4473.44 1294.1 4473.44 1335.25C4473.44 1396.71 4461.72 1454.78 4438.28 1509.47C4414.84 1563.63 4382.81 1611.03 4342.19 1651.65C4301.56 1692.28 4253.91 1724.31 4199.22 1747.75C4145.05 1771.19 4087.24 1782.9 4025.78 1782.9H3801.56V2007.12ZM4834.38 943.061C4834.38 962.852 4830.47 981.342 4822.66 998.529C4815.36 1015.72 4805.21 1030.82 4792.19 1043.84C4779.17 1056.34 4763.8 1066.5 4746.09 1074.31C4728.91 1081.6 4710.42 1085.25 4690.62 1085.25C4670.83 1085.25 4652.08 1081.6 4634.38 1074.31C4617.19 1066.5 4602.08 1056.34 4589.06 1043.84C4576.56 1030.82 4566.41 1015.72 4558.59 998.529C4551.3 981.342 4547.66 962.852 4547.66 943.061C4547.66 923.79 4551.3 905.561 4558.59 888.373C4566.41 870.665 4576.56 855.561 4589.06 843.061C4602.08 830.04 4617.19 819.883 4634.38 812.592C4652.08 804.779 4670.83 800.873 4690.62 800.873C4710.42 800.873 4728.91 804.779 4746.09 812.592C4763.8 819.883 4779.17 830.04 4792.19 843.061C4805.21 855.561 4815.36 870.665 4822.66 888.373C4830.47 905.561 4834.38 923.79 4834.38 943.061ZM4797.66 2007.12H4582.81V1170.4H4797.66V2007.12Z" fill="black"/>
<path d="M6125.69 749.2L6071.24 2040.5L4833.26 742.846L6125.69 749.2Z" fill="#CBB57B"/>
<path d="M5258.09 2007.12H5043.25V837.592H5258.09V1575.09L5576.06 1171.97H5821.38L5544.03 1520.4L5821.38 2007.12H5576.06L5406.53 1703.22L5258.09 1900.09V2007.12Z" fill="black"/>
</svg>
